<svg width="544" height="408" viewBox="0 0 544 408" fill="none" xmlns="http://www.w3.org/2000/svg">
<g clip-path="url(#clip0_173_15)">
<rect width="544" height="408" fill="#000B0F"/>
<path d="M210.679 195H214.504V215.064H210.679V195ZM203.171 215.064H199.346V195H203.171V215.064ZM210.962 206.838H202.888V202.911H210.962V206.838Z" fill="white"/>
<path d="M223.549 215.293C222.494 215.293 221.55 215.045 220.716 214.548C219.897 214.051 219.26 213.296 218.803 212.283C218.347 211.252 218.119 209.943 218.119 208.357V199.643H221.802V207.697C221.802 208.978 222.022 209.924 222.463 210.535C222.919 211.127 223.557 211.424 224.375 211.424C224.942 211.424 225.446 211.28 225.886 210.994C226.327 210.688 226.673 210.229 226.925 209.618C227.177 208.987 227.303 208.204 227.303 207.268V199.643H230.986V215.064H227.492V210.822L228.129 212.054C227.704 213.124 227.075 213.936 226.24 214.49C225.422 215.025 224.525 215.293 223.549 215.293Z" fill="white"/>
<path d="M240.407 220.854C239.21 220.854 238.054 220.672 236.936 220.309C235.834 219.965 234.914 219.439 234.174 218.732L235.638 215.522C236.173 216.057 236.85 216.478 237.668 216.783C238.502 217.108 239.321 217.271 240.123 217.271C241.43 217.271 242.374 216.917 242.957 216.21C243.555 215.503 243.854 214.452 243.854 213.057V210.736L244.09 206.866L244.043 202.968V199.643H247.537V212.484C247.537 215.35 246.923 217.462 245.695 218.818C244.468 220.175 242.705 220.854 240.407 220.854ZM239.84 214.318C238.66 214.318 237.589 214.013 236.629 213.401C235.685 212.771 234.921 211.901 234.339 210.793C233.772 209.666 233.489 208.357 233.489 206.866C233.489 205.357 233.772 204.048 234.339 202.939C234.921 201.812 235.685 200.943 236.629 200.331C237.589 199.72 238.66 199.414 239.84 199.414C240.91 199.414 241.855 199.682 242.673 200.217C243.492 200.732 244.129 201.545 244.586 202.653C245.042 203.742 245.27 205.146 245.27 206.866C245.27 208.567 245.042 209.971 244.586 211.08C244.129 212.169 243.492 212.981 242.673 213.516C241.855 214.051 240.91 214.318 239.84 214.318ZM240.572 210.65C241.217 210.65 241.792 210.497 242.295 210.191C242.799 209.866 243.193 209.417 243.476 208.844C243.759 208.271 243.901 207.611 243.901 206.866C243.901 206.102 243.759 205.443 243.476 204.889C243.193 204.315 242.799 203.876 242.295 203.57C241.792 203.245 241.217 203.083 240.572 203.083C239.927 203.083 239.352 203.245 238.848 203.57C238.345 203.876 237.943 204.315 237.644 204.889C237.361 205.443 237.219 206.102 237.219 206.866C237.219 207.611 237.361 208.271 237.644 208.844C237.943 209.417 238.345 209.866 238.848 210.191C239.352 210.497 239.927 210.65 240.572 210.65Z" fill="white"/>
<path d="M257.044 215.293C255.691 215.293 254.487 214.949 253.432 214.261C252.393 213.573 251.567 212.637 250.953 211.452C250.355 210.248 250.056 208.882 250.056 207.354C250.056 205.806 250.355 204.439 250.953 203.255C251.567 202.051 252.393 201.115 253.432 200.446C254.487 199.758 255.691 199.414 257.044 199.414C258.382 199.414 259.578 199.758 260.633 200.446C261.688 201.115 262.514 202.041 263.112 203.226C263.71 204.411 264.009 205.787 264.009 207.354C264.009 208.882 263.71 210.248 263.112 211.452C262.514 212.637 261.688 213.573 260.633 214.261C259.578 214.949 258.382 215.293 257.044 215.293ZM257.044 211.624C257.658 211.624 258.209 211.452 258.697 211.108C259.185 210.764 259.571 210.277 259.854 209.646C260.137 208.997 260.279 208.232 260.279 207.354C260.279 206.455 260.137 205.691 259.854 205.061C259.571 204.43 259.185 203.943 258.697 203.599C258.209 203.255 257.658 203.083 257.044 203.083C256.43 203.083 255.88 203.255 255.392 203.599C254.904 203.943 254.51 204.43 254.211 205.061C253.928 205.691 253.786 206.455 253.786 207.354C253.786 208.232 253.928 208.997 254.211 209.646C254.51 210.277 254.904 210.764 255.392 211.108C255.88 211.452 256.43 211.624 257.044 211.624Z" fill="white"/>
<path d="M266.766 215.064V195H269.93L276.966 209.159H275.289L282.207 195H285.347L285.394 215.064H281.806L281.782 201.678H282.443L276.918 212.943H275.195L269.552 201.678H270.355V215.064H266.766Z" fill="white"/>
<path d="M296.882 215.064V212.054L296.646 211.395V206.006C296.646 205.051 296.402 204.306 295.914 203.771C295.442 203.236 294.71 202.968 293.718 202.968C293.042 202.968 292.373 203.102 291.712 203.369C291.066 203.618 290.515 203.962 290.059 204.401L288.737 201.277C289.429 200.685 290.264 200.226 291.239 199.901C292.215 199.576 293.207 199.414 294.214 199.414C296.15 199.414 297.653 199.968 298.724 201.076C299.794 202.185 300.329 203.914 300.329 206.264V215.064H296.882ZM293.01 215.293C292.019 215.293 291.169 215.092 290.46 214.691C289.752 214.271 289.209 213.707 288.831 213C288.453 212.293 288.265 211.5 288.265 210.621C288.265 209.704 288.446 208.901 288.808 208.213C289.185 207.525 289.776 206.99 290.578 206.608C291.381 206.207 292.428 206.006 293.718 206.006H297.095V208.615H294.12C293.254 208.615 292.656 208.787 292.325 209.131C292.011 209.475 291.853 209.904 291.853 210.42C291.853 210.994 292.034 211.452 292.396 211.796C292.774 212.121 293.286 212.283 293.931 212.283C294.545 212.283 295.096 212.111 295.584 211.768C296.072 211.404 296.426 210.879 296.646 210.191L297.213 212.255C296.945 213.248 296.457 214.003 295.749 214.519C295.041 215.035 294.128 215.293 293.01 215.293Z" fill="white"/>
<path d="M308.892 215.293C307.397 215.293 306.232 214.834 305.398 213.917C304.564 212.981 304.147 211.596 304.147 209.761V196.232H307.83V209.704C307.83 210.354 307.971 210.86 308.255 211.223C308.538 211.567 308.924 211.739 309.412 211.739C309.994 211.739 310.49 211.548 310.899 211.166L311.891 214.318C311.513 214.643 311.056 214.892 310.521 215.064C310.002 215.217 309.459 215.293 308.892 215.293ZM302.187 203.427V199.987H310.993V203.427H302.187Z" fill="white"/>
<path d="M319.646 215.293C318.292 215.293 317.088 214.949 316.033 214.261C314.994 213.573 314.168 212.637 313.554 211.452C312.956 210.248 312.657 208.882 312.657 207.354C312.657 205.806 312.956 204.439 313.554 203.255C314.168 202.051 314.994 201.115 316.033 200.446C317.088 199.758 318.292 199.414 319.646 199.414C320.983 199.414 322.18 199.758 323.234 200.446C324.289 201.115 325.115 202.041 325.713 203.226C326.311 204.411 326.61 205.787 326.61 207.354C326.61 208.882 326.311 210.248 325.713 211.452C325.115 212.637 324.289 213.573 323.234 214.261C322.18 214.949 320.983 215.293 319.646 215.293ZM319.646 211.624C320.259 211.624 320.81 211.452 321.298 211.108C321.786 210.764 322.172 210.277 322.455 209.646C322.738 208.997 322.88 208.232 322.88 207.354C322.88 206.455 322.738 205.691 322.455 205.061C322.172 204.43 321.786 203.943 321.298 203.599C320.81 203.255 320.259 203.083 319.646 203.083C319.032 203.083 318.481 203.255 317.993 203.599C317.505 203.943 317.111 204.43 316.812 205.061C316.529 205.691 316.387 206.455 316.387 207.354C316.387 208.232 316.529 208.997 316.812 209.646C317.111 210.277 317.505 210.764 317.993 211.108C318.481 211.452 319.032 211.624 319.646 211.624Z" fill="white"/>
<path d="M333.381 215.293C332.295 215.293 331.248 215.14 330.241 214.834C329.249 214.51 328.462 214.108 327.88 213.631L329.108 210.42C329.69 210.86 330.375 211.223 331.162 211.51C331.964 211.777 332.751 211.911 333.523 211.911C334.373 211.911 334.971 211.787 335.317 211.538C335.679 211.29 335.86 210.946 335.86 210.506C335.86 210.143 335.718 209.876 335.435 209.704C335.167 209.513 334.805 209.369 334.349 209.274C333.893 209.178 333.389 209.083 332.838 208.987C332.303 208.892 331.76 208.768 331.209 208.615C330.658 208.443 330.154 208.194 329.698 207.869C329.241 207.545 328.872 207.105 328.588 206.551C328.321 205.997 328.187 205.28 328.187 204.401C328.187 203.427 328.415 202.567 328.872 201.822C329.344 201.076 330.021 200.494 330.902 200.073C331.783 199.634 332.838 199.414 334.066 199.414C334.931 199.414 335.813 199.529 336.71 199.758C337.607 199.987 338.355 200.322 338.953 200.761L337.725 203.943C337.111 203.503 336.49 203.207 335.86 203.054C335.246 202.882 334.648 202.796 334.066 202.796C333.247 202.796 332.649 202.93 332.271 203.197C331.894 203.465 331.705 203.809 331.705 204.229C331.705 204.611 331.839 204.898 332.106 205.089C332.389 205.28 332.759 205.433 333.216 205.548C333.672 205.662 334.168 205.768 334.703 205.863C335.254 205.939 335.805 206.064 336.356 206.236C336.907 206.408 337.403 206.656 337.843 206.981C338.3 207.287 338.67 207.717 338.953 208.271C339.236 208.806 339.378 209.513 339.378 210.392C339.378 211.347 339.142 212.197 338.67 212.943C338.197 213.669 337.513 214.242 336.616 214.662C335.734 215.083 334.656 215.293 333.381 215.293Z" fill="white"/>
<path d="M193.64 217.011L182 211.795V207.381L193.64 202.164V206.349L183.322 210.792V208.384L193.64 212.827V217.011Z" fill="#04C3F0"/>
<path d="M339.283 222L347.074 195H351.064L343.273 222H339.283Z" fill="#04C3F0"/>
<path d="M351.36 216.525V212.341L361.701 207.898V210.306L351.36 205.863V201.678L363 206.895V211.309L351.36 216.525Z" fill="#04C3F0"/>
</g>
<defs>
<clipPath id="clip0_173_15">
<rect width="544" height="408" fill="white"/>
</clipPath>
</defs>
</svg>
