<svg width="56" height="56" viewBox="0 0 56 56" fill="none" xmlns="http://www.w3.org/2000/svg">
<rect width="56" height="56" rx="8" fill="#04C3F0"/>
<path d="M23.8322 27.4176C24.7646 27.8059 25.4918 28.3882 26.014 29.1647C26.5361 29.9412 26.7972 30.8588 26.7972 31.9176C26.7972 33.4353 26.2937 34.6706 25.2867 35.6235C24.2797 36.5412 22.993 37 21.4266 37C19.8601 37 18.5548 36.5235 17.5105 35.5706C16.5035 34.6176 16 33.4 16 31.9176C16 31.2118 16.0932 30.5059 16.2797 29.8C16.4662 29.0941 16.8765 28.0353 17.5105 26.6235L20.7552 19H26.2937L23.8322 27.4176ZM37.035 27.4176C37.9674 27.8059 38.6946 28.3882 39.2168 29.1647C39.7389 29.9412 40 30.8588 40 31.9176C40 33.4353 39.4965 34.6706 38.4895 35.6235C37.4825 36.5412 36.1958 37 34.6294 37C33.0629 37 31.7576 36.5235 30.7133 35.5706C29.7063 34.6176 29.2028 33.4 29.2028 31.9176C29.2028 31.2118 29.296 30.5059 29.4825 29.8C29.669 29.0941 30.0793 28.0353 30.7133 26.6235L33.958 19H39.4965L37.035 27.4176Z" fill="white"/>
</svg>
