<svg width="94" height="12" viewBox="0 0 94 12" fill="none" xmlns="http://www.w3.org/2000/svg">
<path d="M14.8798 0H16.8643V8.40128H14.8798V0ZM10.9844 8.40128H9V0H10.9844V8.40128ZM15.0268 4.95675H10.8374V3.3125H15.0268V4.95675Z" fill="black"/>
<path d="M21.5573 8.49729C21.0102 8.49729 20.5202 8.39327 20.0874 8.18524C19.6627 7.97721 19.332 7.66116 19.0952 7.2371C18.8583 6.80503 18.7399 6.25695 18.7399 5.59285V1.9443H20.6509V5.31681C20.6509 5.85289 20.7652 6.24895 20.9939 6.50499C21.2307 6.75303 21.5614 6.87704 21.9861 6.87704C22.2801 6.87704 22.5414 6.81703 22.7701 6.69702C22.9987 6.569 23.1784 6.37697 23.309 6.12093C23.4397 5.85689 23.505 5.52884 23.505 5.13678V1.9443H25.416V8.40128H23.603V6.62501L23.9338 7.14108C23.7133 7.58915 23.3866 7.9292 22.9538 8.16124C22.5291 8.38527 22.0637 8.49729 21.5573 8.49729Z" fill="black"/>
<path d="M30.3039 10.8256C29.6832 10.8256 29.083 10.7496 28.5032 10.5976C27.9315 10.4536 27.4538 10.2336 27.07 9.93751L27.8295 8.5933C28.1071 8.81734 28.4583 8.99337 28.8829 9.12138C29.3157 9.25741 29.7404 9.32542 30.1569 9.32542C30.8347 9.32542 31.3247 9.17739 31.6269 8.88135C31.9372 8.5853 32.0923 8.14524 32.0923 7.56115V6.589L32.2148 4.96875L32.1903 3.33651V1.9443H34.0033V7.32111C34.0033 8.52129 33.6848 9.40543 33.0478 9.97351C32.4108 10.5416 31.4962 10.8256 30.3039 10.8256ZM30.0099 8.08923C29.3974 8.08923 28.8421 7.96121 28.3439 7.70517C27.854 7.44113 27.4579 7.07707 27.1557 6.613C26.8617 6.14093 26.7147 5.59285 26.7147 4.96875C26.7147 4.33666 26.8617 3.78858 27.1557 3.3245C27.4579 2.85243 27.854 2.48838 28.3439 2.23234C28.8421 1.9763 29.3974 1.84828 30.0099 1.84828C30.5652 1.84828 31.0552 1.9603 31.4799 2.18433C31.9045 2.40036 32.2352 2.74042 32.4721 3.20449C32.7089 3.66056 32.8273 4.24865 32.8273 4.96875C32.8273 5.68086 32.7089 6.26895 32.4721 6.73302C32.2352 7.18909 31.9045 7.52914 31.4799 7.75318C31.0552 7.97721 30.5652 8.08923 30.0099 8.08923ZM30.3896 6.55299C30.7245 6.55299 31.0225 6.48899 31.2839 6.36097C31.5452 6.22495 31.7493 6.03692 31.8963 5.79688C32.0433 5.55684 32.1168 5.2808 32.1168 4.96875C32.1168 4.64871 32.0433 4.37266 31.8963 4.14063C31.7493 3.90059 31.5452 3.71656 31.2839 3.58854C31.0225 3.45252 30.7245 3.38451 30.3896 3.38451C30.0548 3.38451 29.7567 3.45252 29.4954 3.58854C29.2341 3.71656 29.0258 3.90059 28.8707 4.14063C28.7237 4.37266 28.6502 4.64871 28.6502 4.96875C28.6502 5.2808 28.7237 5.55684 28.8707 5.79688C29.0258 6.03692 29.2341 6.22495 29.4954 6.36097C29.7567 6.48899 30.0548 6.55299 30.3896 6.55299Z" fill="black"/>
<path d="M38.9362 8.49729C38.2339 8.49729 37.6091 8.35327 37.062 8.06522C36.523 7.77718 36.0942 7.38512 35.7758 6.88905C35.4654 6.38497 35.3103 5.81288 35.3103 5.17279C35.3103 4.52469 35.4654 3.9526 35.7758 3.45652C36.0942 2.95245 36.523 2.56039 37.062 2.28035C37.6091 1.9923 38.2339 1.84828 38.9362 1.84828C39.6303 1.84828 40.251 1.9923 40.7981 2.28035C41.3453 2.56039 41.774 2.94845 42.0843 3.44452C42.3947 3.9406 42.5498 4.51669 42.5498 5.17279C42.5498 5.81288 42.3947 6.38497 42.0843 6.88905C41.774 7.38512 41.3453 7.77718 40.7981 8.06522C40.251 8.35327 39.6303 8.49729 38.9362 8.49729ZM38.9362 6.96106C39.2547 6.96106 39.5405 6.88905 39.7936 6.74502C40.0468 6.601 40.2469 6.39697 40.3939 6.13293C40.5409 5.86089 40.6144 5.54084 40.6144 5.17279C40.6144 4.79673 40.5409 4.47668 40.3939 4.21264C40.2469 3.9486 40.0468 3.74457 39.7936 3.60055C39.5405 3.45652 39.2547 3.38451 38.9362 3.38451C38.6177 3.38451 38.3319 3.45652 38.0787 3.60055C37.8255 3.74457 37.6214 3.9486 37.4662 4.21264C37.3192 4.47668 37.2457 4.79673 37.2457 5.17279C37.2457 5.54084 37.3192 5.86089 37.4662 6.13293C37.6214 6.39697 37.8255 6.601 38.0787 6.74502C38.3319 6.88905 38.6177 6.96106 38.9362 6.96106Z" fill="black"/>
<path d="M43.9803 8.40128V0H45.6217L49.2721 5.9289H48.4024L51.9915 0H53.6207L53.6452 8.40128H51.7833L51.771 2.79642H52.114L49.2476 7.51314H48.3534L45.4257 2.79642H45.8422V8.40128H43.9803Z" fill="black"/>
<path d="M59.6057 8.40128V7.14108L59.4832 6.86504V4.6087C59.4832 4.20864 59.3566 3.89659 59.1034 3.67256C58.8584 3.44852 58.4787 3.33651 57.9642 3.33651C57.613 3.33651 57.266 3.39251 56.923 3.50453C56.5882 3.60855 56.3023 3.75257 56.0655 3.9366L55.3795 2.6284C55.7388 2.38036 56.1717 2.18833 56.678 2.05231C57.1843 1.91629 57.6988 1.84828 58.2214 1.84828C59.2259 1.84828 60.0058 2.08032 60.5611 2.54439C61.1164 3.00846 61.3941 3.73257 61.3941 4.71672V8.40128H59.6057ZM57.5967 8.49729C57.0822 8.49729 56.6412 8.41328 56.2737 8.24525C55.9063 8.06922 55.6245 7.83319 55.4285 7.53714C55.2325 7.2411 55.1345 6.90905 55.1345 6.54099C55.1345 6.15694 55.2284 5.82088 55.4163 5.53284C55.6123 5.2448 55.9185 5.02076 56.335 4.86074C56.7515 4.69271 57.2946 4.6087 57.9642 4.6087H59.7159V5.70087H58.1724C57.7233 5.70087 57.413 5.77288 57.2415 5.9169C57.0781 6.06092 56.9965 6.24095 56.9965 6.45698C56.9965 6.69702 57.0904 6.88905 57.2782 7.03307C57.4742 7.16909 57.7396 7.2371 58.0744 7.2371C58.3929 7.2371 58.6788 7.16509 58.9319 7.02107C59.1851 6.86904 59.3688 6.64901 59.4832 6.36097L59.7772 7.2251C59.6383 7.64116 59.3852 7.95721 59.0177 8.17324C58.6502 8.38927 58.1765 8.49729 57.5967 8.49729Z" fill="black"/>
<path d="M65.8369 8.49729C65.0611 8.49729 64.4568 8.30526 64.024 7.9212C63.5911 7.52914 63.3747 6.94905 63.3747 6.18094V0.516079H65.2857V6.15693C65.2857 6.42898 65.3592 6.64101 65.5062 6.79303C65.6532 6.93705 65.8532 7.00906 66.1064 7.00906C66.4086 7.00906 66.6658 6.92905 66.8781 6.76903L67.3926 8.08923C67.1966 8.22525 66.9598 8.32926 66.6821 8.40128C66.4126 8.46529 66.1309 8.49729 65.8369 8.49729ZM62.358 3.52854V2.08832H66.9271V3.52854H62.358Z" fill="black"/>
<path d="M71.4162 8.49729C70.7139 8.49729 70.0892 8.35327 69.542 8.06522C69.0031 7.77718 68.5743 7.38512 68.2558 6.88905C67.9455 6.38497 67.7903 5.81288 67.7903 5.17279C67.7903 4.52469 67.9455 3.9526 68.2558 3.45652C68.5743 2.95245 69.0031 2.56039 69.542 2.28035C70.0892 1.9923 70.7139 1.84828 71.4162 1.84828C72.1104 1.84828 72.731 1.9923 73.2782 2.28035C73.8253 2.56039 74.2541 2.94845 74.5644 3.44452C74.8747 3.9406 75.0299 4.51669 75.0299 5.17279C75.0299 5.81288 74.8747 6.38497 74.5644 6.88905C74.2541 7.38512 73.8253 7.77718 73.2782 8.06522C72.731 8.35327 72.1104 8.49729 71.4162 8.49729ZM71.4162 6.96106C71.7347 6.96106 72.0206 6.88905 72.2737 6.74502C72.5269 6.601 72.727 6.39697 72.874 6.13293C73.0209 5.86089 73.0944 5.54084 73.0944 5.17279C73.0944 4.79673 73.0209 4.47668 72.874 4.21264C72.727 3.9486 72.5269 3.74457 72.2737 3.60055C72.0206 3.45652 71.7347 3.38451 71.4162 3.38451C71.0978 3.38451 70.8119 3.45652 70.5588 3.60055C70.3056 3.74457 70.1014 3.9486 69.9463 4.21264C69.7993 4.47668 69.7258 4.79673 69.7258 5.17279C69.7258 5.54084 69.7993 5.86089 69.9463 6.13293C70.1014 6.39697 70.3056 6.601 70.5588 6.74502C70.8119 6.88905 71.0978 6.96106 71.4162 6.96106Z" fill="black"/>
<path d="M78.5428 8.49729C77.9793 8.49729 77.4362 8.43328 76.9136 8.30526C76.3991 8.16924 75.9908 8.00121 75.6886 7.80118L76.3256 6.45698C76.6277 6.64101 76.983 6.79303 77.3913 6.91305C77.8078 7.02507 78.2161 7.08108 78.6163 7.08108C79.0573 7.08108 79.3676 7.02907 79.5472 6.92505C79.7351 6.82104 79.829 6.67701 79.829 6.49299C79.829 6.34096 79.7555 6.22895 79.6085 6.15693C79.4697 6.07692 79.2818 6.01691 79.045 5.97691C78.8082 5.9369 78.5469 5.8969 78.261 5.85689C77.9834 5.81688 77.7016 5.76488 77.4158 5.70087C77.13 5.62885 76.8686 5.52484 76.6318 5.38882C76.395 5.2528 76.2031 5.06877 76.0561 4.83673C75.9173 4.6047 75.8478 4.30465 75.8478 3.9366C75.8478 3.52854 75.9663 3.16848 76.2031 2.85643C76.4481 2.54439 76.7992 2.30035 77.2566 2.12432C77.7139 1.94029 78.261 1.84828 78.898 1.84828C79.3472 1.84828 79.8045 1.89629 80.27 1.9923C80.7355 2.08832 81.1234 2.22834 81.4337 2.41237L80.7967 3.74457C80.4782 3.56054 80.1556 3.43652 79.829 3.37251C79.5105 3.3005 79.2002 3.2645 78.898 3.2645C78.4734 3.2645 78.163 3.3205 77.967 3.43252C77.771 3.54454 77.673 3.68856 77.673 3.86459C77.673 4.02461 77.7425 4.14463 77.8813 4.22464C78.0283 4.30465 78.2202 4.36866 78.457 4.41667C78.6938 4.46468 78.9511 4.50868 79.2287 4.54869C79.5146 4.5807 79.8004 4.6327 80.0862 4.70471C80.372 4.77673 80.6293 4.88074 80.858 5.01676C81.0948 5.14478 81.2867 5.32481 81.4337 5.55684C81.5807 5.78088 81.6542 6.07692 81.6542 6.44498C81.6542 6.84504 81.5317 7.20109 81.2867 7.51314C81.0417 7.81719 80.6865 8.05722 80.221 8.23325C79.7636 8.40928 79.2043 8.49729 78.5428 8.49729Z" fill="black"/>
<path d="M6.03908 9.21694L0 7.03261V5.18433L6.03908 3V4.75227L0.685981 6.61255V5.60439L6.03908 7.46468V9.21694Z" fill="#04C3F0"/>
<path d="M81.605 11.3057L85.6474 0H87.7176L83.6752 11.3057H81.605Z" fill="#04C3F0"/>
<path d="M87.8712 9.01337V7.2611L93.2365 5.40082V6.40897L87.8712 4.54869V2.79642L93.9102 4.98076V6.82904L87.8712 9.01337Z" fill="#04C3F0"/>
</svg>
