<svg width="544" height="408" viewBox="0 0 544 408" fill="none" xmlns="http://www.w3.org/2000/svg">
<g clip-path="url(#clip0_172_2)">
<rect width="544" height="408" fill="#00AFEB"/>
<g clip-path="url(#clip1_172_2)">
<path d="M297 172H248C243.582 172 240 175.582 240 180V229C240 233.418 243.582 237 248 237H297C301.418 237 305 233.418 305 229V180C305 175.582 301.418 172 297 172Z" fill="url(#paint0_linear_172_2)"/>
<path d="M272.5 191.118C268.166 191.1 264.001 192.73 260.919 195.651C257.837 198.571 256.089 202.543 256.059 206.696C256.056 208.744 256.479 210.773 257.305 212.662C258.131 214.551 259.342 216.263 260.868 217.698C261.514 218.306 262.384 218.647 263.29 218.647C264.196 218.647 265.065 218.306 265.712 217.698C266.03 217.398 266.282 217.04 266.454 216.646C266.627 216.252 266.716 215.829 266.716 215.401C266.716 214.974 266.627 214.55 266.454 214.156C266.282 213.762 266.03 213.404 265.712 213.104C264.822 212.266 264.116 211.267 263.634 210.165C263.152 209.062 262.903 207.879 262.903 206.684C262.903 205.489 263.152 204.306 263.634 203.203C264.116 202.101 264.822 201.102 265.712 200.264C267.519 198.56 269.953 197.605 272.489 197.605C275.024 197.605 277.458 198.56 279.266 200.264C280.155 201.102 280.861 202.101 281.343 203.203C281.826 204.306 282.074 205.489 282.074 206.684C282.074 207.879 281.826 209.062 281.343 210.165C280.861 211.267 280.155 212.266 279.266 213.104C278.948 213.404 278.695 213.762 278.523 214.156C278.351 214.55 278.262 214.974 278.262 215.401C278.262 215.829 278.351 216.252 278.523 216.646C278.695 217.04 278.948 217.398 279.266 217.698C279.912 218.306 280.782 218.647 281.688 218.647C282.594 218.647 283.463 218.306 284.11 217.698C285.639 216.265 286.854 214.553 287.684 212.664C288.514 210.775 288.941 208.746 288.941 206.696C288.911 202.543 287.163 198.571 284.081 195.651C280.999 192.73 276.834 191.1 272.5 191.118Z" fill="white"/>
</g>
</g>
<defs>
<linearGradient id="paint0_linear_172_2" x1="240.655" y1="191.817" x2="307.804" y2="204.291" gradientUnits="userSpaceOnUse">
<stop stop-color="#00A5F0"/>
<stop offset="1" stop-color="#00D7D7"/>
</linearGradient>
<clipPath id="clip0_172_2">
<rect width="544" height="408" fill="white"/>
</clipPath>
<clipPath id="clip1_172_2">
<rect width="65" height="65" fill="white" transform="translate(240 172)"/>
</clipPath>
</defs>
</svg>
